<svg xmlns="http://www.w3.org/2000/svg" data-name="Home Automation" viewBox="0 0 60 75" x="0px" y="0px"><title>Home Automation - 068 - Radiator Cold</title><path d="M18,35V55a4,4,0,0,1-8,0V23a4.01174,4.01174,0,0,1,4-4,3.847,3.847,0,0,1,2.09.61A14.49887,14.49887,0,0,0,18,23.64V31" fill="none" stroke="#000" stroke-linecap="round" stroke-linejoin="round" stroke-width="2"/><path d="M26,40.00022V55a4,4,0,0,1-8,0V35" fill="none" stroke="#000" stroke-linecap="round" stroke-linejoin="round" stroke-width="2"/><path d="M18,31V23.64a14.54023,14.54023,0,0,0,8,5.8v5.55992" fill="none" stroke="#000" stroke-linecap="round" stroke-linejoin="round" stroke-width="2"/><path d="M34,39.00032V55a4,4,0,0,1-8,0V39" fill="none" stroke="#000" stroke-linecap="round" stroke-linejoin="round" stroke-width="2"/><path d="M26,34.00041V29.44A14.64064,14.64064,0,0,0,30,30a14.26552,14.26552,0,0,0,4-.56V35" fill="none" stroke="#000" stroke-linecap="round" stroke-linejoin="round" stroke-width="2"/><path d="M42,37.00007V55a4,4,0,0,1-8,0V39.00032" fill="none" stroke="#000" stroke-linejoin="round" stroke-width="2"/><path d="M34,35V29.44a14.54023,14.54023,0,0,0,8-5.8V31" fill="none" stroke="#000" stroke-linecap="round" stroke-linejoin="round" stroke-width="2"/><path d="M42,30.00034V23.64a14.42563,14.42563,0,0,0,1.91-4.04A4.00466,4.00466,0,0,1,50,23V55a4,4,0,0,1-8,0V35.00025" fill="none" stroke="#000" stroke-linecap="round" stroke-linejoin="round" stroke-width="2"/><line x1="10" y1="52" x2="6" y2="52" fill="none" stroke="#000" stroke-linecap="round" stroke-linejoin="round" stroke-width="2"/><path d="M50,52h2a2,2,0,0,0,2-2V48" fill="none" stroke="#000" stroke-linecap="round" stroke-linejoin="round" stroke-width="2"/><path d="M44.5,15.5a14.61648,14.61648,0,0,1-.59,4.1A14.51513,14.51513,0,0,1,34,29.44,14.26552,14.26552,0,0,1,30,30,14.5,14.5,0,1,1,44.5,15.5Z" fill="none" stroke="#000" stroke-linecap="round" stroke-linejoin="round" stroke-width="2"/><line x1="30" y1="5" x2="30" y2="25.5" fill="none" stroke="#000" stroke-linecap="round" stroke-linejoin="round" stroke-width="2"/><line x1="30" y1="8.075" x2="27" y2="6.025" fill="none" stroke="#000" stroke-linecap="round" stroke-linejoin="round" stroke-width="2"/><line x1="30" y1="8.075" x2="33" y2="6.025" fill="none" stroke="#000" stroke-linecap="round" stroke-linejoin="round" stroke-width="2"/><line x1="30" y1="22.425" x2="27" y2="24.475" fill="none" stroke="#000" stroke-linecap="round" stroke-linejoin="round" stroke-width="2"/><line x1="30" y1="22.425" x2="33" y2="24.475" fill="none" stroke="#000" stroke-linecap="round" stroke-linejoin="round" stroke-width="2"/><line x1="20" y1="15.25" x2="40" y2="15.25" fill="none" stroke="#000" stroke-linecap="round" stroke-linejoin="round" stroke-width="2"/><line x1="23" y1="15.5" x2="21" y2="18.5" fill="none" stroke="#000" stroke-linecap="round" stroke-linejoin="round" stroke-width="2"/><line x1="23" y1="15.5" x2="21" y2="12.5" fill="none" stroke="#000" stroke-linecap="round" stroke-linejoin="round" stroke-width="2"/><line x1="37" y1="15.5" x2="39" y2="18.5" fill="none" stroke="#000" stroke-linecap="round" stroke-linejoin="round" stroke-width="2"/><line x1="37" y1="15.5" x2="39" y2="12.5" fill="none" stroke="#000" stroke-linecap="round" stroke-linejoin="round" stroke-width="2"/><line x1="25" y1="10.125" x2="35" y2="20.375" fill="none" stroke="#000" stroke-linecap="round" stroke-linejoin="round" stroke-width="2"/><line x1="25" y1="20.375" x2="35" y2="10.125" fill="none" stroke="#000" stroke-linecap="round" stroke-linejoin="round" stroke-width="2"/><text x="0" y="75" fill="#000000" font-size="5px" font-weight="bold" font-family="'Helvetica Neue', Helvetica, Arial-Unicode, Arial, Sans-serif">Created by Creaticca Creative Agency</text><text x="0" y="80" fill="#000000" font-size="5px" font-weight="bold" font-family="'Helvetica Neue', Helvetica, Arial-Unicode, Arial, Sans-serif">from the Noun Project</text></svg>
